<svg width="94" height="94" viewBox="0 0 94 94" fill="none" xmlns="http://www.w3.org/2000/svg">
<g filter="url(#filter0_d_1_30)">
<rect width="94" height="94" fill="#69B9FF"/>
<path fill-rule="evenodd" clip-rule="evenodd" d="M66 25.6067V18.4C66 13.0733 61.9267 9 56.6 9H37.8C32.4733 9 28.4 13.0733 28.4 18.4V25.6067C22.76 30.62 19 38.14 19 46.6C19 55.06 22.76 62.58 28.4 67.5933V74.8C28.4 80.1267 32.4733 84.2 37.8 84.2H56.6C61.9267 84.2 66 80.1267 66 74.8V67.5933C71.64 62.58 75.4 55.06 75.4 46.6C75.4 38.14 71.64 30.62 66 25.6067ZM34.6667 18.4C34.6667 16.52 35.92 15.2667 37.8 15.2667H56.6C58.48 15.2667 59.7333 16.52 59.7333 18.4V21.22C55.9733 19.34 51.5867 18.4 47.2 18.4C42.8133 18.4 38.4267 19.34 34.6667 21.22V18.4ZM59.7333 74.8C59.7333 76.68 58.48 77.9333 56.6 77.9333H37.8C35.92 77.9333 34.6667 76.68 34.6667 74.8V71.98C38.4267 73.86 42.8133 74.8 47.2 74.8C51.5867 74.8 55.9733 73.86 59.7333 71.98V74.8ZM47.2 68.5333C34.98 68.5333 25.2667 58.82 25.2667 46.6C25.2667 34.38 34.98 24.6667 47.2 24.6667C59.42 24.6667 69.1333 34.38 69.1333 46.6C69.1333 58.82 59.42 68.5333 47.2 68.5333ZM50.3333 45.3467V34.0667C50.3333 32.1867 49.08 30.9333 47.2 30.9333C45.32 30.9333 44.0667 32.1867 44.0667 34.0667V46.6C44.0667 47.54 44.38 48.1667 45.0067 48.7933L51.2733 55.06C51.9 55.6867 52.84 56 53.4667 56C54.0933 56 55.0333 55.6867 55.66 55.06C56.9133 53.8067 56.9133 51.9267 55.66 50.6733L50.3333 45.3467Z" fill="white"/>
<rect x="5" y="5" width="84" height="84" stroke="white" stroke-width="10"/>
</g>
<defs>
<filter id="filter0_d_1_30" x="0" y="0" width="94" height="94" filterUnits="userSpaceOnUse" color-interpolation-filters="sRGB">
<feFlood flood-opacity="0" result="BackgroundImageFix"/>
<feColorMatrix in="SourceAlpha" type="matrix" values="0 0 0 0 0 0 0 0 0 0 0 0 0 0 0 0 0 0 127 0" result="hardAlpha"/>
<feOffset/>
<feColorMatrix type="matrix" values="0 0 0 0 0.180392 0 0 0 0 0.615686 0 0 0 0 1 0 0 0 1 0"/>
<feBlend mode="normal" in2="BackgroundImageFix" result="effect1_dropShadow_1_30"/>
<feBlend mode="normal" in="SourceGraphic" in2="effect1_dropShadow_1_30" result="shape"/>
</filter>
</defs>
</svg>
