<svg width="19" height="14" viewBox="0 0 19 14" fill="none" xmlns="http://www.w3.org/2000/svg">
<path d="M13.6 4.60003C13.6 4.60003 12.1333 9.2667 12 9.60003C11.9333 9.20003 10.8667 0.866699 10.8667 0.866699C8.33333 0.866699 7 2.6667 6.26666 4.53337C6.26666 4.53337 4.46667 9.20003 4.33333 9.60003C4.33333 9.2667 4.06667 4.60003 4.06667 4.60003C3.93333 2.2667 1.8 0.866699 0.0666656 0.866699L2.13333 13.4667C4.8 13.4667 6.2 11.6667 6.93333 9.80003C6.93333 9.80003 8.53333 5.6667 8.6 5.53337C8.6 5.73337 9.73333 13.5334 9.73333 13.5334C12.4 13.5334 13.8 11.8667 14.6 10L18.3333 0.866699C15.7333 0.866699 14.3333 2.6667 13.6 4.60003Z" fill="black"/>
</svg>
