<svg width="16" height="20" viewBox="0 0 16 20" fill="none" xmlns="http://www.w3.org/2000/svg">
<path d="M15.2667 5.8C14.7333 2.06666 11 0.199999 7.06667 0.666665C3.93334 0.999999 0.800004 3.53333 0.66667 7.13333C0.600004 9.33333 1.2 11 3.33334 11.4667C4.26667 9.86666 3.06667 9.53333 2.86667 8.33333C2.06667 3.53333 8.4 0.333332 11.6667 3.66666C13.9333 6 12.4667 13.0667 8.8 12.3333C5.26667 11.6 10.5333 6 7.73334 4.86666C5.46667 3.93333 4.26667 7.6 5.33334 9.46666C4.66667 12.6 3.33334 15.5333 3.86667 19.4667C5.66667 18.1333 6.26667 15.6667 6.73334 13.0667C7.6 13.6 8.13334 14.2 9.26667 14.2667C13.4667 14.6 15.8 10 15.2667 5.8Z" fill="black"/>
</svg>
