<svg width="19" height="18" viewBox="0 0 19 18" fill="none" xmlns="http://www.w3.org/2000/svg">
<path d="M1.26666 4.73337C1.26666 6.20004 1.73333 7.33337 2.73333 7.93337C3.53333 8.46671 4.46666 8.53337 4.93333 8.53337C5.06666 8.53337 5.13333 8.53337 5.2 8.53337C5.2 8.53337 5.06666 9.53337 5.8 10.5334H5.73333C4.46666 10.5334 0.266663 10.8 0.266663 14.2667C0.266663 17.8 4.13333 17.9334 4.93333 17.9334C5 17.9334 5 17.9334 5 17.9334C5 17.9334 5.06666 17.9334 5.13333 17.9334C5.6 17.9334 6.93333 17.8667 8.13333 17.2667C9.66666 16.5334 10.4667 15.2 10.4667 13.4C10.4667 11.6667 9.26666 10.6 8.4 9.80004C7.86666 9.33337 7.4 8.93337 7.4 8.53337C7.4 8.13337 7.73333 7.80004 8.13333 7.46671C8.8 6.86671 9.46666 6.00004 9.46666 4.33337C9.46666 2.86671 9.26666 1.86671 8.13333 1.26671C8.33333 1.20004 8.8 1.13337 9 1.13337C9.6 1.06671 10.5333 0.933374 10.5333 0.466707V0.333374H5.93333C5.86666 0.333374 1.26666 0.533374 1.26666 4.73337ZM8.73333 13.7334C8.8 15.1334 7.6 16.2 5.8 16.3334C3.93333 16.4667 2.46666 15.6667 2.4 14.2667C2.33333 13.6 2.66666 12.9334 3.26666 12.4C3.86666 11.8667 4.66666 11.5334 5.53333 11.4667C5.66666 11.4667 5.73333 11.4667 5.86666 11.4667C7.46666 11.4 8.6 12.4 8.73333 13.7334ZM7.53333 3.73337C8 5.33337 7.33333 7.00004 6.2 7.26671C6.06666 7.33337 5.93333 7.33337 5.8 7.33337C4.8 7.33337 3.8 6.33337 3.46666 4.93337C3.26666 4.20004 3.26666 3.53337 3.53333 2.86671C3.73333 2.20004 4.2 1.80004 4.66666 1.66671C4.8 1.60004 4.93333 1.60004 5.06666 1.60004C6.26666 1.60004 7 2.06671 7.53333 3.73337ZM15.2667 7.13337V4.13337H13.2667V7.13337H10.2667V9.13337H13.2667V12.1334H15.2667V9.13337H18.2667V7.13337H15.2667Z" fill="black"/>
</svg>
