<svg width="20" height="16" viewBox="0 0 20 16" fill="none" xmlns="http://www.w3.org/2000/svg">
<path d="M17.4667 4.39996C17.4667 4.53329 17.4667 4.73329 17.4667 4.86663C17.4667 9.86663 13.6667 15.6 6.73334 15.6C4.6 15.6 2.6 15 0.933334 13.9333C1.2 13.9333 1.53333 14 1.86667 14C3.66667 14 5.26667 13.4 6.53333 12.4C4.86667 12.4 3.46667 11.2666 3 9.79996C3.2 9.86663 3.46667 9.86663 3.73333 9.86663C4.06667 9.86663 4.4 9.79996 4.73333 9.73329C3 9.33329 1.66667 7.79996 1.66667 5.99996C1.66667 5.99996 1.66667 5.99996 1.66667 5.93329C2.2 6.19996 2.73333 6.39996 3.4 6.39996C2.4 5.73329 1.73333 4.59996 1.73333 3.26663C1.73333 2.59996 1.93333 1.93329 2.26667 1.39996C4.13333 3.66663 6.93334 5.19996 10.0667 5.33329C10 5.06663 10 4.79996 10 4.46663C10 2.39996 11.6667 0.666626 13.8 0.666626C14.8667 0.666626 15.8667 1.13329 16.5333 1.86663C17.4 1.66663 18.2 1.39996 18.9333 0.933293C18.6667 1.79996 18.0667 2.53329 17.2667 2.99996C17.9333 2.93329 18.6667 2.73329 19.3333 2.46663C18.8 3.19996 18.2 3.86663 17.4667 4.39996Z" fill="black"/>
</svg>
